<svg width="25" height="25" viewBox="0 0 25 25" fill="none" xmlns="http://www.w3.org/2000/svg">
<path d="M22.5871 6.18525V7.14075L22.5897 7.14075L22.5871 6.18525ZM23.0887 6.80151L22.1537 6.60505L22.1535 6.60567L23.0887 6.80151ZM21.259 15.5396L20.3238 15.3437L20.3237 15.344L21.259 15.5396ZM20.7812 15.9456V16.9011H20.8024L20.8235 16.9002L20.7812 15.9456ZM6.31976 15.9456L5.39279 16.1774L5.57373 16.9011H6.31976V15.9456ZM2.97552 2.56866L3.90249 2.33692L3.90195 2.33476L2.97552 2.56866ZM2.08691 1.87595L2.0877 0.920448H2.08691V1.87595ZM6.358 18.2102L7.3135 18.2135V18.2102H6.358ZM7.72914 19.5813V18.6258L7.72579 18.6258L7.72914 19.5813ZM3.87847 7.14075H3.87967V5.22975H3.87847V7.14075ZM3.87967 7.14075H22.5871V5.22975H3.87967V7.14075ZM22.5897 7.14075C22.5235 7.14092 22.4581 7.12632 22.3982 7.09795L23.2165 5.37099C23.0189 5.2774 22.803 5.22917 22.5846 5.22976L22.5897 7.14075ZM22.3982 7.09795C22.3384 7.06959 22.2856 7.02823 22.2439 6.97691L23.726 5.77056C23.5881 5.60111 23.414 5.46457 23.2165 5.37099L22.3982 7.09795ZM22.2439 6.97691C22.2023 6.92578 22.1724 6.86578 22.1567 6.80119L24.0138 6.35056C23.9622 6.13793 23.8638 5.93983 23.726 5.77056L22.2439 6.97691ZM22.1567 6.80119C22.1411 6.73666 22.1401 6.66963 22.1537 6.60505L24.0238 6.99797C24.0687 6.78431 24.0654 6.56312 24.0138 6.35056L22.1567 6.80119ZM22.1535 6.60567L20.3238 15.3437L22.1942 15.7354L24.024 6.99734L22.1535 6.60567ZM20.3237 15.344C20.3439 15.2474 20.3957 15.1603 20.4709 15.0964L21.7085 16.5525C21.9567 16.3415 22.1276 16.0539 22.1943 15.7351L20.3237 15.344ZM20.4709 15.0964C20.5461 15.0325 20.6404 14.9954 20.7389 14.9911L20.8235 16.9002C21.1489 16.8858 21.4603 16.7635 21.7085 16.5525L20.4709 15.0964ZM20.7812 14.9901H6.358V16.9011H20.7812V14.9901ZM6.358 14.9901H6.31976V16.9011H6.358V14.9901ZM7.24673 15.7139L4.80664 5.95351L2.9527 6.41699L5.39279 16.1774L7.24673 15.7139ZM4.80664 5.95351L3.90249 2.33692L2.04855 2.8004L2.9527 6.41699L4.80664 5.95351ZM3.90195 2.33476C3.79994 1.93072 3.5661 1.57235 3.23756 1.31623L2.06264 2.82337C2.05599 2.81819 2.05119 2.81087 2.04909 2.80256L3.90195 2.33476ZM3.23756 1.31623C2.90898 1.06008 2.50437 0.920793 2.0877 0.920448L2.08613 2.83144C2.0776 2.83144 2.06933 2.82858 2.06264 2.82337L3.23756 1.31623ZM2.08691 0.920448H0.175919V2.83144H2.08691V0.920448ZM5.4025 15.9456V18.2102H7.3135V15.9456H5.4025ZM5.40251 18.2068C5.40143 18.513 5.46094 18.8165 5.57767 19.0998L7.34448 18.3716C7.32385 18.3215 7.3133 18.2678 7.31349 18.2135L5.40251 18.2068ZM5.57767 19.0998C5.69443 19.383 5.86605 19.6402 6.08254 19.8567L7.43383 18.5055C7.39542 18.4671 7.36509 18.4216 7.34448 18.3716L5.57767 19.0998ZM6.08254 19.8567C6.29906 20.0733 6.55634 20.2449 6.83957 20.3616L7.56779 18.5948C7.51775 18.5742 7.4722 18.5438 7.43383 18.5055L6.08254 19.8567ZM6.83957 20.3616C7.12287 20.4784 7.42634 20.5379 7.73248 20.5368L7.72579 18.6258C7.67146 18.626 7.61778 18.6154 7.56779 18.5948L6.83957 20.3616ZM7.72914 20.5368H21.4549V18.6258H7.72914V20.5368Z" fill="black"/>
<path d="M7.1591 24.124C7.99024 24.124 8.66401 23.4503 8.66401 22.6191C8.66401 21.788 7.99024 21.1142 7.1591 21.1142C6.32796 21.1142 5.65419 21.788 5.65419 22.6191C5.65419 23.4503 6.32796 24.124 7.1591 24.124Z" fill="#F4B5A4"/>
<path d="M17.9419 24.124C18.773 24.124 19.4468 23.4503 19.4468 22.6191C19.4468 21.788 18.773 21.1142 17.9419 21.1142C17.1108 21.1142 16.437 21.788 16.437 22.6191C16.437 23.4503 17.1108 24.124 17.9419 24.124Z" fill="#F4B5A4"/>
</svg>
