<svg width="30" height="22" viewBox="0 0 30 22" fill="none" xmlns="http://www.w3.org/2000/svg">
<path d="M7.86015 20.555H6.90465V21.5105H7.86015V20.555ZM22.2362 20.555V21.5105H23.1917V20.555H22.2362ZM1.87436 7.10033H0.918861V8.05583H1.87436V7.10033ZM1.87436 4.33809L0.918861 4.33508V4.33809H1.87436ZM4.81665 1.44501V0.489499L4.81227 0.489519L4.81665 1.44501ZM7.86018 4.33809H8.81568L8.81567 4.33507L7.86018 4.33809ZM25.8774 7.33953L26.2193 6.44731L26.2165 6.44624L25.8774 7.33953ZM22.2592 7.94884L21.6439 8.67985L22.2592 9.19776L22.8745 8.67985L22.2592 7.94884ZM18.6411 7.33953L18.3019 6.44624L18.3008 6.44666L18.6411 7.33953ZM16.6044 11.8801L17.4931 11.5291L17.4927 11.5282L16.6044 11.8801ZM22.2546 16.5019L21.7776 17.3298L22.247 17.6002L22.7201 17.3363L22.2546 16.5019ZM27.9048 11.8846L27.0173 11.5308L27.0161 11.5336L27.9048 11.8846ZM6.90465 16.6373V20.555H8.81565V16.6373H6.90465ZM7.86015 21.5105H22.2362V19.5995H7.86015V21.5105ZM18.8111 2.40051C19.4718 2.40051 20.1018 2.65829 20.5636 3.11168L21.9024 1.74801C21.0796 0.940214 19.9673 0.489509 18.8111 0.489509V2.40051ZM20.5636 3.11168C21.0249 3.56449 21.2807 4.17485 21.2807 4.80751H23.1917C23.1917 3.65657 22.7258 2.5564 21.9024 1.74801L20.5636 3.11168ZM21.2807 4.80751V7.72771H23.1917V4.80751H21.2807ZM5.77754 6.14483H1.87436V8.05583H5.77754V6.14483ZM2.82986 7.10033V4.33809H0.918861V7.10033H2.82986ZM2.82985 4.34111C2.83146 3.83311 3.03733 3.34276 3.40842 2.97788L2.06859 1.61526C1.33739 2.33422 0.922098 3.31149 0.918866 4.33508L2.82985 4.34111ZM3.40842 2.97788C3.7801 2.61242 4.28751 2.40294 4.82102 2.4005L4.81227 0.489519C3.78572 0.494217 2.79919 0.896875 2.06859 1.61526L3.40842 2.97788ZM8.81567 17.0164V4.33809H6.90468V17.0164H8.81567ZM8.81567 4.33507C8.81243 3.3104 8.3962 2.33223 7.66373 1.61314L6.32496 2.97681C6.69676 3.34181 6.90307 3.83265 6.90468 4.34112L8.81567 4.33507ZM7.66373 1.61314C6.93182 0.894585 5.94373 0.492647 4.91614 0.489514L4.91032 2.4005C5.44439 2.40213 5.95261 2.61126 6.32496 2.97681L7.66373 1.61314ZM10.7013 6.9004H14.7608V4.9894H10.7013V6.9004ZM10.7013 10.9219H16.3699V9.01089H10.7013V10.9219ZM10.7013 15.6475H19.0318V13.7365H10.7013V15.6475ZM26.2165 6.44624C25.4546 6.15701 24.628 6.07611 23.8239 6.21152L24.1412 8.09598C24.6113 8.01681 25.0943 8.06429 25.5382 8.23282L26.2165 6.44624ZM23.8239 6.21152C23.0197 6.34694 22.2662 6.694 21.6439 7.21783L22.8745 8.67985C23.2336 8.37757 23.6712 8.17514 24.1412 8.09598L23.8239 6.21152ZM22.8745 7.21783C22.2522 6.69398 21.4986 6.34693 20.6945 6.21152L20.3771 8.09598C20.8472 8.17514 21.2848 8.37759 21.6439 8.67985L22.8745 7.21783ZM20.6945 6.21152C19.8904 6.07611 19.0638 6.15701 18.3019 6.44624L18.9802 8.23282C19.4241 8.06429 19.907 8.01681 20.3771 8.09598L20.6945 6.21152ZM18.3008 6.44666C17.7477 6.65745 17.2411 6.97362 16.8106 7.37789L18.1186 8.77102C18.3664 8.53838 18.6594 8.35505 18.9813 8.2324L18.3008 6.44666ZM16.8106 7.37789C16.38 7.78217 16.0338 8.26673 15.7926 8.80444L17.5362 9.58654C17.6733 9.28092 17.8709 9.00365 18.1186 8.77102L16.8106 7.37789ZM15.7926 8.80444C15.5513 9.34224 15.4202 9.92207 15.4071 10.5106L17.3176 10.5533C17.325 10.2206 17.3991 9.89209 17.5362 9.58654L15.7926 8.80444ZM15.4071 10.5106C15.3939 11.0992 15.499 11.6842 15.7161 12.232L17.4927 11.5282C17.3695 11.2172 17.3102 10.886 17.3176 10.5533L15.4071 10.5106ZM15.7157 12.2311C15.9762 12.8908 16.5616 13.5255 17.136 14.0526C17.7408 14.6078 18.462 15.1567 19.141 15.6354C19.8232 16.1164 20.4805 16.5387 20.9659 16.8402C21.2091 16.9913 21.4104 17.1127 21.5515 17.1968C21.6221 17.2388 21.6778 17.2716 21.7162 17.2941C21.7354 17.3053 21.7503 17.314 21.7607 17.32C21.7658 17.323 21.7698 17.3253 21.7727 17.3269C21.7741 17.3278 21.7752 17.3284 21.7761 17.3289C21.7765 17.3291 21.7768 17.3293 21.7771 17.3295C21.7772 17.3296 21.7773 17.3296 21.7774 17.3297C21.7775 17.3297 21.7776 17.3298 22.2546 16.5019C22.7316 15.6739 22.7316 15.674 22.7317 15.674C22.7317 15.674 22.7317 15.674 22.7317 15.674C22.7316 15.674 22.7315 15.6739 22.7313 15.6738C22.731 15.6736 22.7303 15.6732 22.7293 15.6726C22.7274 15.6715 22.7243 15.6697 22.7201 15.6673C22.7117 15.6624 22.6987 15.6548 22.6815 15.6448C22.647 15.6246 22.5956 15.5943 22.5294 15.5549C22.3971 15.4761 22.206 15.3608 21.9741 15.2168C21.5094 14.9282 20.8851 14.5268 20.2421 14.0735C19.5959 13.6179 18.9482 13.122 18.4281 12.6447C17.8775 12.1394 17.5819 11.7541 17.4931 11.5291L15.7157 12.2311ZM22.7201 17.3363C22.8414 17.2686 24.1099 16.5386 25.4451 15.5946C26.1123 15.1229 26.8154 14.5843 27.4054 14.0372C27.9677 13.5157 28.5349 12.8903 28.7935 12.2356L27.0161 11.5336C26.9253 11.7636 26.6369 12.1436 26.1059 12.636C25.6025 13.1029 24.9747 13.5869 24.3419 14.0342C23.0773 14.9283 21.8701 15.6223 21.7891 15.6674L22.7201 17.3363ZM28.7924 12.2385C29.0106 11.6911 29.1171 11.1062 29.1051 10.5175L27.1945 10.5561C27.2013 10.8888 27.1412 11.22 27.0173 11.5308L28.7924 12.2385ZM29.1051 10.5175C29.0932 9.92875 28.9632 9.34858 28.7231 8.81031L26.9779 9.58882C27.1144 9.89476 27.1878 10.2234 27.1945 10.5561L29.1051 10.5175ZM28.7231 8.81031C28.483 8.27207 28.1377 7.78671 27.7079 7.3815L26.397 8.77204C26.6443 9.00514 26.8414 9.28287 26.9779 9.58882L28.7231 8.81031ZM27.7079 7.3815C27.2781 6.97632 26.7721 6.65917 26.2193 6.44731L25.5354 8.23175C25.8571 8.35503 26.1497 8.53891 26.397 8.77204L27.7079 7.3815ZM23.1917 20.555V16.371H21.2807V20.555H23.1917ZM4.81665 2.40051H18.8111V0.489509H4.81665V2.40051Z" fill="black"/>
</svg>
