<svg width="26" height="25" viewBox="0 0 26 25" fill="none" xmlns="http://www.w3.org/2000/svg">
<path d="M12.8052 2L13.4337 1.2803L12.8053 0.731558L12.1768 1.28018L12.8052 2ZM20.7979 23.3745V24.33H21.7534V23.3745H20.7979ZM20.7979 12.5057H21.7534V12.0718L21.4267 11.7862L20.7979 12.5057ZM12.8052 5.52101L13.4339 4.80152L12.8054 4.25224L12.1766 4.80134L12.8052 5.52101ZM4.80766 12.5057L4.17913 11.786L3.85216 12.0716V12.5057H4.80766ZM4.80766 23.3745H3.85216V24.33H4.80766V23.3745ZM10.9276 23.3745V24.33H11.8831V23.3745H10.9276ZM10.9276 16.6V15.6445H9.97213V16.6H10.9276ZM1.62835 13.0249L13.4335 2.71982L12.1768 1.28018L0.371646 11.5852L1.62835 13.0249ZM12.1767 2.7197L23.9771 13.0247L25.2341 11.5853L13.4337 1.2803L12.1767 2.7197ZM13.6747 24.33H20.7979V22.419H13.6747V24.33ZM21.7534 23.3745V12.5057H19.8424V23.3745H21.7534ZM21.4267 11.7862L13.4339 4.80152L12.1764 6.24049L20.1692 13.2252L21.4267 11.7862ZM12.1766 4.80134L4.17913 11.786L5.43619 13.2254L13.4337 6.24068L12.1766 4.80134ZM3.85216 12.5057V23.3745H5.76316V12.5057H3.85216ZM4.80766 24.33H10.9276V22.419H4.80766V24.33ZM11.8831 23.3745V16.6H9.97213V23.3745H11.8831ZM10.9276 17.5555H14.678V15.6445H10.9276V17.5555Z" fill="black"/>
</svg>
