<svg width="20" height="23" viewBox="0 0 20 23" fill="none" xmlns="http://www.w3.org/2000/svg">
<path d="M13.5727 5.93021C13.5727 7.64789 12.1803 9.04035 10.4626 9.04035V10.9513C13.2357 10.9513 15.4837 8.70331 15.4837 5.93021H13.5727ZM10.4626 9.04035C8.7449 9.04035 7.35244 7.64789 7.35244 5.93021H5.44145C5.44145 8.70331 7.68949 10.9513 10.4626 10.9513V9.04035ZM7.35244 5.93021C7.35244 4.21252 8.7449 2.82006 10.4626 2.82006V0.909065C7.68949 0.909065 5.44145 3.15711 5.44145 5.93021H7.35244ZM10.4626 2.82006C12.1803 2.82006 13.5727 4.21252 13.5727 5.93021H15.4837C15.4837 3.15711 13.2357 0.909065 10.4626 0.909065V2.82006ZM2.88073 22.1354V21.4905H0.969734V22.1354H2.88073ZM2.88073 21.4905C2.88073 19.4796 3.67953 17.5512 5.10141 16.1293L3.75013 14.778C1.96988 16.5583 0.969734 18.9728 0.969734 21.4905H2.88073ZM5.10141 16.1293C6.52329 14.7074 8.45177 13.9086 10.4626 13.9086V11.9976C7.94494 11.9976 5.53039 12.9978 3.75013 14.778L5.10141 16.1293ZM10.4626 13.9086C12.4734 13.9086 14.4019 14.7074 15.8238 16.1293L17.1751 14.778C15.3948 12.9978 12.9803 11.9976 10.4626 11.9976V13.9086ZM15.8238 16.1293C17.2457 17.5512 18.0445 19.4796 18.0445 21.4905H19.9555C19.9555 18.9728 18.9553 16.5583 17.1751 14.778L15.8238 16.1293ZM18.0445 21.4905V22.1354H19.9555V21.4905H18.0445Z" fill="black"/>
</svg>
