<svg width="18" height="18" viewBox="0 0 18 18" fill="none" xmlns="http://www.w3.org/2000/svg">
<path d="M13.1211 12.0605C12.8282 11.7676 12.3534 11.7676 12.0605 12.0605C11.7676 12.3534 11.7676 12.8282 12.0605 13.1211L13.1211 12.0605ZM15.7747 16.8353C16.0676 17.1282 16.5424 17.1282 16.8353 16.8353C17.1282 16.5424 17.1282 16.0676 16.8353 15.7747L15.7747 16.8353ZM13.7129 8.07894C13.7129 11.1905 11.1905 13.7129 8.07894 13.7129V15.2129C12.0189 15.2129 15.2129 12.0189 15.2129 8.07894H13.7129ZM8.07894 13.7129C4.9674 13.7129 2.44501 11.1905 2.44501 8.07894H0.945007C0.945007 12.0189 4.13898 15.2129 8.07894 15.2129V13.7129ZM2.44501 8.07894C2.44501 4.9674 4.9674 2.44501 8.07894 2.44501V0.945007C4.13898 0.945007 0.945007 4.13898 0.945007 8.07894H2.44501ZM8.07894 2.44501C11.1905 2.44501 13.7129 4.9674 13.7129 8.07894H15.2129C15.2129 4.13898 12.0189 0.945007 8.07894 0.945007V2.44501ZM12.0605 13.1211L15.7747 16.8353L16.8353 15.7747L13.1211 12.0605L12.0605 13.1211Z" fill="white"/>
</svg>
