<svg width="12" height="12" viewBox="0 0 12 12" fill="none" xmlns="http://www.w3.org/2000/svg">
<path d="M7.08798 2.10156C7.08798 1.43882 6.55073 0.901562 5.88798 0.901562C5.22524 0.901562 4.68798 1.43882 4.68798 2.10156H7.08798ZM4.68798 10.673C4.68798 11.3357 5.22524 11.873 5.88798 11.873C6.55073 11.873 7.08798 11.3357 7.08798 10.673H4.68798ZM10.171 7.53673C10.8338 7.53673 11.371 6.99947 11.371 6.33673C11.371 5.67399 10.8338 5.13673 10.171 5.13673V7.53673ZM1.59961 5.13673C0.936868 5.13673 0.399609 5.67399 0.399609 6.33673C0.399609 6.99947 0.936868 7.53673 1.59961 7.53673V5.13673ZM4.68798 2.10156V6.33673H7.08798V2.10156H4.68798ZM4.68798 6.33673V10.673H7.08798V6.33673H4.68798ZM10.171 5.13673H5.88798V7.53673H10.171V5.13673ZM5.88798 5.13673H1.59961V7.53673H5.88798V5.13673Z" fill="white"/>
</svg>
