<svg width="23" height="22" viewBox="0 0 23 22" fill="none" xmlns="http://www.w3.org/2000/svg">
<path d="M1.38027 1.44501V0.489509H0.424774V1.44501H1.38027ZM7.5133 1.44501H8.4688V0.489509H7.5133V1.44501ZM7.5133 5.31859V6.27408H8.4688V5.31859H7.5133ZM1.38027 5.31859H0.424774V6.27408H1.38027V5.31859ZM1.38027 9.06546V8.10996H0.424774V9.06546H1.38027ZM7.5133 9.06546H8.4688V8.10996H7.5133V9.06546ZM7.5133 12.939V13.8945H8.4688V12.939H7.5133ZM1.38027 12.939H0.424774V13.8945H1.38027V12.939ZM1.38027 16.6814V15.7259H0.424774V16.6814H1.38027ZM7.5133 16.6814H8.4688V15.7259H7.5133V16.6814ZM7.5133 20.555V21.5105H8.4688V20.555H7.5133ZM1.38027 20.555H0.424774V21.5105H1.38027V20.555ZM1.38027 2.40051H7.5133V0.489509H1.38027V2.40051ZM6.55781 1.44501V5.31859H8.4688V1.44501H6.55781ZM7.5133 4.36309H1.38027V6.27408H7.5133V4.36309ZM2.33577 5.31859V1.44501H0.424774V5.31859H2.33577ZM1.38027 10.021H7.5133V8.10996H1.38027V10.021ZM6.55781 9.06546V12.939H8.4688V9.06546H6.55781ZM7.5133 11.9835H1.38027V13.8945H7.5133V11.9835ZM2.33577 12.939V9.06546H0.424774V12.939H2.33577ZM1.38027 17.6369H7.5133V15.7259H1.38027V17.6369ZM6.55781 16.6814V20.555H8.4688V16.6814H6.55781ZM7.5133 19.5995H1.38027V21.5105H7.5133V19.5995ZM2.33577 20.555V16.6814H0.424774V20.555H2.33577ZM10.2319 4.33729H22.4012V2.4263H10.2319V4.33729ZM10.2319 11.9577H22.4012V10.0468H10.2319V11.9577ZM10.2319 19.5737H22.4012V17.6627H10.2319V19.5737Z" fill="grey"/>
</svg>
